P3
4 4
255

241 10 10       241 10 10     10 10 241     241 241 10
241 241 10     241 241 10       241 10 10        10 241 10  
10 10 241       241 241 10    241 241 241     10 10 10
241 10 10        10 241 10      10 10 241       241 241 10
